HIERARCHY
ROOT Hips
{
	OFFSET 0.000000 71.427986 0.000000
	CHANNELS 6 Xposition Yposition Zposition Xrotation Yrotation Zrotation
	JOINT Pelvis
	{
		OFFSET 0.000000 0.000000 0.000000
		CHANNELS 3 Xrotation Yrotation Zrotation
		JOINT LeftUpLeg
		{
			OFFSET 6.797100 -2.508499 -1.318700
			CHANNELS 3 Xrotation Yrotation Zrotation
			JOINT LeftLeg
			{
				OFFSET 0.069008 -29.241863 0.690200
				CHANNELS 3 Xrotation Yrotation Zrotation
				JOINT LeftFoot
				{
					OFFSET -0.069008 -29.568123 -0.266800
					CHANNELS 3 Xrotation Yrotation Zrotation
					JOINT LeftToeBase
					{
						OFFSET 3.145500 -8.631000 16.059900
						CHANNELS 3 Xrotation Yrotation Zrotation
						End Site
						{
							OFFSET 0.000000 18.501587 0.000000
						}
					}
				}
			}
			JOINT Left_ShortSleeve
			{
				OFFSET 0.265923 -10.480953 1.153800
				CHANNELS 3 Xrotation Yrotation Zrotation
				End Site
				{
					OFFSET 1.725763 19.823879 0.000000
				}
			}
		}
		JOINT RightUpLeg
		{
			OFFSET -6.797100 -2.508499 -1.318700
			CHANNELS 3 Xrotation Yrotation Zrotation
			JOINT RightLeg
			{
				OFFSET -0.082453 -29.241932 0.688000
				CHANNELS 3 Xrotation Yrotation Zrotation
				JOINT RightFoot
				{
					OFFSET 0.082453 -29.568058 -0.264600
					CHANNELS 3 Xrotation Yrotation Zrotation
					JOINT RightToeBase
					{
						OFFSET -3.115300 -8.682800 16.113400
						CHANNELS 3 Xrotation Yrotation Zrotation
						End Site
						{
							OFFSET 0.000000 18.567114 0.000000
						}
					}
				}
			}
			JOINT Right_ShortSleeve
			{
				OFFSET -0.265923 -10.480953 1.153800
				CHANNELS 3 Xrotation Yrotation Zrotation
				End Site
				{
					OFFSET -1.725766 19.823910 0.000000
				}
			}
		}
	}
	JOINT Spine
	{
		OFFSET 0.000000 13.368103 0.470500
		CHANNELS 3 Xrotation Yrotation Zrotation
		JOINT Spine1
		{
			OFFSET 0.147000 13.837402 0.538800
			CHANNELS 3 Xrotation Yrotation Zrotation
			JOINT Spine2
			{
				OFFSET 0.168000 16.242897 -1.435500
				CHANNELS 3 Xrotation Yrotation Zrotation
				JOINT Neck
				{
					OFFSET 0.217200 18.631500 -1.679100
					CHANNELS 3 Xrotation Yrotation Zrotation
					JOINT Head
					{
						OFFSET 0.000000 6.599396 1.385900
						CHANNELS 3 Xrotation Yrotation Zrotation
						JOINT Hat
						{
							OFFSET -0.532200 27.220596 -10.096100
							CHANNELS 3 Xrotation Yrotation Zrotation
							End Site
							{
								OFFSET 0.000000 22.029861 0.000000
							}
						}
						JOINT HairD
						{
							OFFSET -10.777400 17.437393 -1.325900
							CHANNELS 3 Xrotation Yrotation Zrotation
							JOINT HairD1
							{
								OFFSET -3.290299 -11.051193 1.062200
								CHANNELS 3 Xrotation Yrotation Zrotation
								End Site
								{
									OFFSET 0.000000 11.579437 0.000000
								}
							}
						}
						JOINT HairB
						{
							OFFSET -10.777400 17.437393 1.467900
							CHANNELS 3 Xrotation Yrotation Zrotation
							JOINT HairB1
							{
								OFFSET -1.561200 -12.956299 3.590200
								CHANNELS 3 Xrotation Yrotation Zrotation
								End Site
								{
									OFFSET 0.000000 13.534866 0.000000
								}
							}
						}
						JOINT HairA
						{
							OFFSET 9.713100 17.437393 1.467900
							CHANNELS 3 Xrotation Yrotation Zrotation
							JOINT HairA1
							{
								OFFSET 1.561200 -12.956299 3.590200
								CHANNELS 3 Xrotation Yrotation Zrotation
								End Site
								{
									OFFSET 0.000000 13.534866 0.000000
								}
							}
						}
						JOINT HairC
						{
							OFFSET 9.713100 17.437393 -1.325900
							CHANNELS 3 Xrotation Yrotation Zrotation
							JOINT HairC1
							{
								OFFSET 3.290300 -11.051193 1.062200
								CHANNELS 3 Xrotation Yrotation Zrotation
								End Site
								{
									OFFSET 0.000000 11.579437 0.000000
								}
							}
						}
					}
				}
				JOINT LeftShoulder
				{
					OFFSET 5.101800 15.108002 -2.763700
					CHANNELS 3 Xrotation Yrotation Zrotation
					JOINT LeftArm
					{
						OFFSET 9.825497 2.506317 -1.597400
						CHANNELS 3 Xrotation Yrotation Zrotation
						JOINT LeftForeArm
						{
							OFFSET 21.966244 0.000000 0.000000
							CHANNELS 3 Xrotation Yrotation Zrotation
							JOINT LeftHand
							{
								OFFSET 33.879036 0.000000 0.000000
								CHANNELS 3 Xrotation Yrotation Zrotation
								JOINT LeftHandThumb1
								{
									OFFSET 6.715286 -2.359680 3.363841
									CHANNELS 3 Xrotation Yrotation Zrotation
									JOINT LeftHandThumb2
									{
										OFFSET 2.507072 -1.447464 1.447461
										CHANNELS 3 Xrotation Yrotation Zrotation
										JOINT LeftHandThumb3
										{
											OFFSET 2.898338 -1.673355 1.673357
											CHANNELS 3 Xrotation Yrotation Zrotation
											End Site
											{
												OFFSET -0.295959 3.727692 -0.131651
											}
										}
									}
								}
								JOINT LeftHandIndex1
								{
									OFFSET 14.190811 -0.254547 3.840278
									CHANNELS 3 Xrotation Yrotation Zrotation
									JOINT LeftHandIndex2
									{
										OFFSET 3.551727 0.000000 -0.000000
										CHANNELS 3 Xrotation Yrotation Zrotation
										JOINT LeftHandIndex3
										{
											OFFSET 2.894196 0.000000 0.000000
											CHANNELS 3 Xrotation Yrotation Zrotation
											End Site
											{
												OFFSET -1.000603 2.690872 0.366626
											}
										}
									}
								}
								JOINT LeftHandMiddle1
								{
									OFFSET 13.776489 0.000000 0.000000
									CHANNELS 3 Xrotation Yrotation Zrotation
									JOINT LeftHandMiddle2
									{
										OFFSET 3.438232 0.000000 0.000000
										CHANNELS 3 Xrotation Yrotation Zrotation
										JOINT LeftHandMiddle3
										{
											OFFSET 3.691551 0.000000 0.000000
											CHANNELS 3 Xrotation Yrotation Zrotation
											End Site
											{
												OFFSET -1.082298 3.499527 0.457670
											}
										}
									}
								}
								JOINT LeftHandRing1
								{
									OFFSET 13.966164 -0.268127 -3.067488
									CHANNELS 3 Xrotation Yrotation Zrotation
									JOINT LeftHandRing2
									{
										OFFSET 3.162567 0.000000 0.000000
										CHANNELS 3 Xrotation Yrotation Zrotation
										JOINT LeftHandRing3
										{
											OFFSET 3.324348 0.000000 0.000000
											CHANNELS 3 Xrotation Yrotation Zrotation
											End Site
											{
												OFFSET -0.861900 3.184998 0.405154
											}
										}
									}
								}
								JOINT LeftHandPinky1
								{
									OFFSET 13.131393 -0.168503 -5.746925
									CHANNELS 3 Xrotation Yrotation Zrotation
									JOINT LeftHandPinky2
									{
										OFFSET 2.849182 0.000000 0.000000
										CHANNELS 3 Xrotation Yrotation Zrotation
										JOINT LeftHandPinky3
										{
											OFFSET 2.805038 0.000000 0.000000
											CHANNELS 3 Xrotation Yrotation Zrotation
											End Site
											{
												OFFSET -0.882500 2.642609 0.325652
											}
										}
									}
								}
							}
							JOINT Left_Sleeve
							{
								OFFSET 6.592125 -0.646545 0.805568
								CHANNELS 3 Xrotation Yrotation Zrotation
								End Site
								{
									OFFSET -0.000179 20.275787 -0.000000
								}
							}
						}
					}
				}
				JOINT RightShoulder
				{
					OFFSET -5.731700 15.108002 -2.763700
					CHANNELS 3 Xrotation Yrotation Zrotation
					JOINT RightArm
					{
						OFFSET -9.825497 2.506317 -1.597400
						CHANNELS 3 Xrotation Yrotation Zrotation
						JOINT RightForeArm
						{
							OFFSET -21.966242 0.000000 0.000000
							CHANNELS 3 Xrotation Yrotation Zrotation
							JOINT RightHand
							{
								OFFSET -33.879032 0.000000 0.000000
								CHANNELS 3 Xrotation Yrotation Zrotation
								JOINT RightHandThumb1
								{
									OFFSET -6.715286 -2.359680 3.363841
									CHANNELS 3 Xrotation Yrotation Zrotation
									JOINT RightHandThumb2
									{
										OFFSET -2.507072 -1.447464 1.447461
										CHANNELS 3 Xrotation Yrotation Zrotation
										JOINT RightHandThumb3
										{
											OFFSET -2.898338 -1.673355 1.673357
											CHANNELS 3 Xrotation Yrotation Zrotation
											End Site
											{
												OFFSET 0.295959 3.727692 -0.131651
											}
										}
									}
								}
								JOINT RightHandIndex1
								{
									OFFSET -14.190811 -0.254547 3.840278
									CHANNELS 3 Xrotation Yrotation Zrotation
									JOINT RightHandIndex2
									{
										OFFSET -3.551727 0.000000 -0.000000
										CHANNELS 3 Xrotation Yrotation Zrotation
										JOINT RightHandIndex3
										{
											OFFSET -2.894196 0.000000 0.000000
											CHANNELS 3 Xrotation Yrotation Zrotation
											End Site
											{
												OFFSET 1.000603 2.690872 0.366626
											}
										}
									}
								}
								JOINT RightHandMiddle1
								{
									OFFSET -13.776489 0.000000 0.000000
									CHANNELS 3 Xrotation Yrotation Zrotation
									JOINT RightHandMiddle2
									{
										OFFSET -3.438232 0.000000 0.000000
										CHANNELS 3 Xrotation Yrotation Zrotation
										JOINT RightHandMiddle3
										{
											OFFSET -3.691551 0.000000 0.000000
											CHANNELS 3 Xrotation Yrotation Zrotation
											End Site
											{
												OFFSET 1.082298 3.499527 0.457670
											}
										}
									}
								}
								JOINT RightHandRing1
								{
									OFFSET -13.966164 -0.268127 -3.067488
									CHANNELS 3 Xrotation Yrotation Zrotation
									JOINT RightHandRing2
									{
										OFFSET -3.162567 0.000000 0.000000
										CHANNELS 3 Xrotation Yrotation Zrotation
										JOINT RightHandRing3
										{
											OFFSET -3.324348 0.000000 0.000000
											CHANNELS 3 Xrotation Yrotation Zrotation
											End Site
											{
												OFFSET 0.861900 3.184998 0.405154
											}
										}
									}
								}
								JOINT RightHandPinky1
								{
									OFFSET -13.131393 -0.168503 -5.746925
									CHANNELS 3 Xrotation Yrotation Zrotation
									JOINT RightHandPinky2
									{
										OFFSET -2.849182 0.000000 0.000000
										CHANNELS 3 Xrotation Yrotation Zrotation
										JOINT RightHandPinky3
										{
											OFFSET -2.805038 0.000000 0.000000
											CHANNELS 3 Xrotation Yrotation Zrotation
											End Site
											{
												OFFSET 0.882500 2.642609 0.325652
											}
										}
									}
								}
							}
							JOINT Right_Sleeve
							{
								OFFSET -6.592125 -0.646545 0.805568
								CHANNELS 3 Xrotation Yrotation Zrotation
								End Site
								{
									OFFSET 0.000179 20.275787 -0.000000
								}
							}
						}
					}
				}
				JOINT Bind_Right_JacketString
				{
					OFFSET -3.534800 11.969597 7.200700
					CHANNELS 3 Xrotation Yrotation Zrotation
					JOINT Bind_Right_JacketString1
					{
						OFFSET -0.319900 -6.102600 2.794100
						CHANNELS 3 Xrotation Yrotation Zrotation
						End Site
						{
							OFFSET 0.000000 6.719452 0.000000
						}
					}
				}
				JOINT Bind_Left_JacketString
				{
					OFFSET 2.904800 11.969597 7.200700
					CHANNELS 3 Xrotation Yrotation Zrotation
					JOINT Bind_Left_JacketString1
					{
						OFFSET 0.364800 -5.904503 3.186800
						CHANNELS 3 Xrotation Yrotation Zrotation
						End Site
						{
							OFFSET 0.000000 6.719513 0.000000
						}
					}
				}
				JOINT HairE
				{
					OFFSET 5.915200 17.612701 -11.592200
					CHANNELS 3 Xrotation Yrotation Zrotation
					JOINT HairE1
					{
						OFFSET 0.289200 -7.171898 -1.284500
						CHANNELS 3 Xrotation Yrotation Zrotation
						End Site
						{
							OFFSET 0.000000 7.291756 0.000000
						}
					}
				}
				JOINT HairF
				{
					OFFSET -0.864800 17.612701 -11.592200
					CHANNELS 3 Xrotation Yrotation Zrotation
					JOINT HairF1
					{
						OFFSET 0.000000 -14.087097 -2.127501
						CHANNELS 3 Xrotation Yrotation Zrotation
						End Site
						{
							OFFSET 0.000000 14.246841 0.000000
						}
					}
				}
				JOINT HairG
				{
					OFFSET -8.087700 17.612701 -11.592200
					CHANNELS 3 Xrotation Yrotation Zrotation
					JOINT HairG1
					{
						OFFSET -0.293600 -6.081398 -0.910100
						CHANNELS 3 Xrotation Yrotation Zrotation
						End Site
						{
							OFFSET 0.000000 6.156120 0.000000
						}
					}
				}
			}
		}
	}
	JOINT Pouch
	{
		OFFSET 0.000000 4.394501 10.847300
		CHANNELS 3 Xrotation Yrotation Zrotation
		End Site
		{
			OFFSET 0.000000 21.880577 0.000000
		}
	}
	JOINT Bag
	{
		OFFSET -13.229000 4.813004 -0.593300
		CHANNELS 3 Xrotation Yrotation Zrotation
		End Site
		{
			OFFSET 0.000000 21.880577 0.000000
		}
	}
	JOINT OccupyGuyFacialAnim_Joint
	{
		OFFSET 1.000000 -70.206398 -1.655000
		CHANNELS 3 Xrotation Yrotation Zrotation
		End Site
		{
			OFFSET 0.000000 21.880577 0.000000
		}
	}
}
MOTION
Frames: 4
Frame Time: 0.033333
57.369011 54.962433 -4.166265 22.778416 18.251270 -8.165294 -0.000000 -0.000001 0.000000 -40.173547 7.200846 47.723590 11.591703 -3.958295 2.728793 -5.730865 -6.903735 -27.371544 -0.000000 0.000000 -0.000002 0.000000 -0.000003 -0.000003 -59.323512 4.921080 -33.289171 28.077065 -5.955355 -5.782904 19.489847 2.013030 18.367799 0.000000 -0.000000 0.000000 -0.000000 -0.000001 0.000001 63.765751 -4.389839 16.103846 10.967890 -3.883643 1.179302 10.787772 -4.294720 1.737182 -8.756933 1.503671 0.108599 -23.125306 9.421706 -14.054927 0.000001 -0.000000 0.000001 0.000001 -0.000000 0.000001 0.000001 -0.000000 0.000000 0.000001 -0.000000 0.000001 0.000003 0.000000 0.000000 0.000001 -0.000000 0.000001 0.000003 0.000000 0.000000 0.000001 -0.000000 0.000001 0.000001 -0.000000 0.000001 10.528264 -42.145566 4.360689 -53.339823 6.951181 2.410369 0.000001 -28.252335 -0.000002 -61.358772 -16.889480 12.137751 -6.927517 -1.828513 7.060369 8.072861 28.466859 2.659287 0.000000 -0.000001 0.000000 0.927606 5.649488 -21.347538 0.327094 1.931911 -19.217700 0.000001 -0.000000 -0.000002 0.691573 5.103251 -20.259111 0.364300 2.035458 -20.292576 -0.000000 -0.000001 0.000001 0.389709 4.297549 -21.333268 0.362325 2.030101 -20.236713 -0.000001 -0.000000 -0.000002 0.538818 4.670306 -23.221221 0.356899 2.015345 -20.083148 0.000000 -0.000002 0.000001 0.000001 -0.000000 0.000001 20.841679 22.628517 -6.095322 -19.512606 14.068133 15.243440 -0.000007 52.509101 0.000012 -63.268438 9.154312 -1.340084 0.081764 3.376422 3.490292 6.984890 -19.633059 1.771272 -0.000000 0.000001 -0.000001 0.427874 -4.124064 23.268245 0.305268 -1.659942 20.838883 -0.000000 0.000000 0.000004 0.579203 -4.441416 27.594207 0.442619 -1.983401 25.157909 -0.000000 -0.000003 0.000000 0.654643 -4.579538 29.531122 0.512150 -2.125082 27.097466 -0.000000 -0.000003 -0.000001 0.716496 -4.685146 31.037018 0.569078 -2.232753 28.594478 0.000001 -0.000001 0.000000 0.000000 0.000001 -0.000001 -0.000000 0.000000 -0.000000 0.000002 -0.000000 -0.000000 -0.000000 0.000000 0.000000 -0.000000 0.000000 0.000000 -0.000000 0.000000 -0.000000 0.000002 -0.000000 -0.000000 -0.000000 0.000000 0.000000 -0.000000 0.000000 0.000000 -0.000000 0.000000 -0.000000 0.000002 -0.000000 -0.000000 -0.000000 -0.000001 0.000000 -0.000000 -0.000001 0.000000 -0.000000 -0.000001 0.000000 
54.676186 54.524414 -2.914667 28.418805 22.051071 -13.070119 0.000001 0.000001 -0.000000 -38.870682 9.450447 50.136085 5.475470 3.219886 4.744301 -6.060023 1.962320 -18.804049 0.000001 -0.000000 -0.000001 0.000002 0.000002 -0.000000 -65.692220 6.320961 -33.267591 40.298642 -7.923875 -4.228930 11.943460 -0.374439 19.579552 0.000000 0.000000 0.000000 0.000003 0.000001 -0.000002 64.317740 -4.551929 15.818670 10.939591 -4.012429 1.191930 10.742182 -4.459080 1.784972 -9.677496 1.482729 0.797921 -22.211616 9.599740 -12.888908 0.000000 0.000000 0.000001 0.000000 0.000000 0.000001 0.000000 0.000000 0.000001 0.000000 0.000000 0.000001 0.000000 -0.000000 0.000001 0.000000 0.000000 0.000001 0.000000 -0.000000 0.000001 0.000000 0.000000 0.000001 0.000000 0.000000 0.000001 8.839943 -40.734063 1.760732 -51.247418 4.607044 -0.054978 0.000003 -27.942075 -0.000009 -61.615444 -16.339095 11.557225 -7.180687 -3.158445 7.107137 7.599934 24.798766 2.398364 -0.000000 0.000001 -0.000004 0.696157 5.139486 -17.327285 0.206087 1.541717 -15.226855 0.000001 0.000001 -0.000002 0.467154 4.580002 -16.178022 0.222152 1.599538 -15.812841 0.000001 0.000000 -0.000001 0.235639 3.795738 -16.891106 0.219552 1.590352 -15.719559 -0.000000 -0.000000 -0.000000 0.369216 4.226713 -18.578415 0.212191 1.563967 -15.452053 0.000001 0.000000 0.000001 0.000003 -0.000001 0.000000 21.212621 25.429069 -10.051072 -26.133955 7.394922 10.029270 0.000011 48.515558 -0.000025 -60.931510 3.950748 3.499721 -0.075987 3.718631 3.464225 6.929835 -19.183969 1.433270 0.000000 0.000000 0.000003 0.508724 -4.301248 25.663942 0.378313 -1.840364 23.230875 -0.000001 -0.000001 0.000002 0.642171 -4.557487 29.218965 0.500438 -2.102026 26.779819 -0.000000 -0.000001 -0.000001 0.707022 -4.669353 30.810584 0.560544 -2.217036 28.374609 -0.000001 0.000002 -0.000002 0.759578 -4.755092 32.048009 0.609018 -2.304459 29.603481 0.000001 0.000003 -0.000001 0.000001 -0.000000 -0.000001 -0.000002 0.000001 -0.000000 -0.000000 0.000001 -0.000000 -0.000002 0.000001 -0.000001 -0.000002 0.000001 -0.000001 -0.000002 0.000001 -0.000000 -0.000000 0.000001 -0.000000 -0.000002 0.000001 -0.000001 -0.000002 0.000001 -0.000001 -0.000002 0.000001 -0.000000 -0.000000 0.000001 -0.000000 0.000001 0.000001 -0.000000 0.000001 0.000001 -0.000000 0.000001 0.000001 -0.000000 
52.451500 53.662170 -1.379793 32.094649 23.864773 -17.095183 0.000000 0.000000 0.000001 -32.763888 14.159944 51.250874 6.604968 -9.089301 7.581358 0.796451 2.284685 -12.265176 0.000002 0.000001 0.000002 -0.000001 0.000001 -0.000002 -70.984182 6.755080 -33.500364 50.917383 -8.131771 -1.530702 5.223433 -1.752576 19.356710 0.000000 0.000000 0.000001 -0.000000 -0.000002 0.000002 65.313288 -7.284754 14.024839 10.854698 -4.683847 0.845922 10.639329 -5.185750 1.528619 -7.443682 1.694762 1.286370 -26.036966 12.081505 -9.292282 -0.000000 0.000000 -0.000001 -0.000000 0.000000 -0.000001 -0.000000 0.000000 -0.000001 -0.000000 0.000000 -0.000001 -0.000000 0.000000 -0.000002 -0.000000 0.000000 -0.000001 -0.000000 0.000000 -0.000002 -0.000000 0.000000 -0.000001 -0.000000 0.000000 -0.000001 8.308000 -37.431943 4.024780 -51.748245 9.048927 -4.969924 -0.000010 -33.943598 -0.000002 -52.625539 -16.867422 31.977081 -7.509270 -4.757158 6.982326 6.993876 20.162503 2.031924 0.000001 -0.000001 -0.000004 0.439404 4.424153 -11.602634 0.082341 0.979832 -9.607431 0.000001 0.000001 -0.000000 0.258313 3.940348 -10.598143 0.086933 1.006542 -9.871931 0.000001 0.000000 0.000001 0.122923 3.229244 -11.054119 0.085563 0.998660 -9.793823 -0.000001 -0.000001 0.000003 0.206705 3.645965 -12.684132 0.081704 0.976047 -9.569903 -0.000000 -0.000000 -0.000001 -0.000001 0.000000 -0.000000 23.839244 26.912453 -17.343011 -37.569380 5.790872 3.017428 -0.000010 35.935534 0.000007 -55.364738 -0.585552 14.968040 -0.258440 4.062348 3.403246 6.875107 -18.736064 1.096499 -0.000002 -0.000000 0.000003 0.590710 -4.463211 27.897704 0.453156 -2.005692 25.460835 -0.000001 -0.000001 0.000002 0.701909 -4.660818 30.688009 0.555574 -2.207827 28.246107 0.000001 0.000002 -0.000000 0.754791 -4.747436 31.937155 0.604823 -2.297072 29.499006 0.000003 0.000003 -0.000003 0.797203 -4.813989 32.908292 0.643995 -2.364902 30.462043 -0.000003 0.000004 -0.000002 0.000001 -0.000001 0.000000 0.000001 -0.000003 0.000000 -0.000000 -0.000001 0.000000 0.000001 -0.000003 0.000001 0.000001 -0.000003 0.000001 0.000001 -0.000003 0.000000 -0.000000 -0.000001 -0.000000 0.000001 -0.000003 0.000001 0.000001 -0.000003 0.000001 0.000001 -0.000003 0.000000 -0.000000 -0.000001 -0.000000 0.000000 0.000000 0.000001 0.000000 0.000000 0.000001 0.000000 0.000000 0.000001 
50.707680 52.661411 0.520992 35.081511 24.708735 -22.406748 -0.000000 0.000000 0.000000 -26.685513 15.417532 54.320023 15.387912 -7.456996 9.290890 10.524018 -1.148721 -18.336676 0.000002 -0.000003 -0.000003 0.000001 0.000001 0.000000 -74.467060 5.260489 -32.841394 59.612149 -8.670433 0.996074 -1.181570 -2.358663 19.764517 0.000000 0.000000 0.000000 -0.000002 -0.000003 0.000001 66.862450 -8.510843 11.866262 10.174637 -4.724611 1.271812 10.062843 -4.979663 1.893871 -7.460782 1.588278 2.213764 -27.456811 13.344118 -7.223036 -0.000000 0.000000 -0.000001 -0.000000 0.000000 -0.000001 -0.000000 0.000000 -0.000000 -0.000000 0.000000 0.000000 0.000001 0.000000 0.000000 -0.000000 0.000000 0.000000 0.000001 0.000000 0.000000 -0.000000 0.000000 -0.000001 -0.000000 0.000000 -0.000001 7.887241 -32.575815 6.420679 -55.136292 9.411708 -12.081552 -0.000010 -40.107427 -0.000009 -37.060340 -14.723670 51.710700 -5.983655 -5.777242 4.221760 6.412958 15.825991 1.651387 -0.000001 -0.000000 -0.000002 1.081788 -0.812952 -5.540157 0.015194 0.422183 -4.123452 0.000002 0.000001 0.000002 -0.194961 -1.082296 -4.253780 0.015987 0.432994 -4.229235 0.000000 0.000000 0.000001 -0.316984 -1.815511 -5.157386 0.015744 0.429686 -4.196828 -0.000001 -0.000001 -0.000002 -0.575973 -2.056609 -7.852442 0.014969 0.418972 -4.092009 0.000002 -0.000000 0.000001 0.000002 -0.000000 0.000000 29.686338 21.924383 -21.856925 -57.405834 6.972279 1.628117 0.000009 30.945965 -0.000007 -42.151259 -5.175917 21.290043 -0.467096 4.405335 3.304111 6.821136 -18.292741 0.763516 0.000001 0.000000 -0.000001 0.667352 -4.601807 29.846400 0.523684 -2.147395 27.406081 -0.000004 -0.000000 0.000002 0.753410 -4.745242 31.905053 0.603296 -2.294361 29.460781 0.000001 -0.000001 -0.000003 0.793592 -4.808388 32.826576 0.640881 -2.359621 30.386624 0.000001 -0.000002 0.000005 0.825531 -4.857069 33.542963 0.670373 -2.409177 31.095403 -0.000000 0.000002 0.000003 -0.000001 -0.000001 -0.000001 -0.000000 0.000003 0.000002 -0.000002 0.000001 0.000001 -0.000000 0.000003 0.000002 -0.000000 0.000003 0.000002 -0.000000 0.000003 0.000002 -0.000002 0.000001 0.000001 -0.000000 0.000003 0.000002 -0.000000 0.000003 0.000002 -0.000000 0.000003 0.000002 -0.000002 0.000001 0.000001 -0.000000 0.000000 0.000000 -0.000000 0.000000 0.000000 -0.000000 0.000000 0.000000 
